<?xml version="1.0" encoding="UTF-8"?>
<svg xmlns="http://www.w3.org/2000/svg" width="200" height="201" viewBox="0 0 200 201" fill="none">
  <rect y="0.812988" width="200" height="200" rx="100" fill="#D42024"></rect>
  <path d="M171.611 52.7971C171.099 51.8064 171.495 50.5845 172.486 50.0892C173.493 49.5773 174.698 49.9736 175.21 50.9643C178.248 56.9085 180.576 63.1829 182.128 69.6389C183.681 76.1279 184.49 82.7656 184.49 89.4197C184.49 112.751 175.029 133.869 159.739 149.159C144.449 164.448 123.331 173.909 100 173.909C76.6692 173.909 55.5344 164.448 40.2612 149.159C24.9715 133.869 15.5103 112.751 15.5103 89.4197C15.5103 82.8481 16.2699 76.3261 17.7889 69.9526C19.2915 63.6122 21.5371 57.4368 24.4926 51.5422C24.988 50.535 26.1933 50.1387 27.2005 50.6341C28.1912 51.1294 28.604 52.3513 28.0922 53.342C25.3017 58.9229 23.1717 64.8175 21.7352 70.8773C20.2987 76.9205 19.5722 83.1453 19.5722 89.4197C19.5722 111.628 28.571 131.739 43.1177 146.286C57.6809 160.849 77.792 169.848 100 169.848C122.208 169.848 142.319 160.849 156.866 146.286C171.429 131.739 180.428 111.628 180.428 89.4197C180.428 83.0298 179.668 76.7058 178.199 70.58C176.713 64.4377 174.517 58.4771 171.611 52.7971Z" fill="white"></path>
  <path d="M135.847 31.5638C134.872 30.9694 134.575 29.6814 135.17 28.7073C135.781 27.7331 137.068 27.4194 138.043 28.0303C148.66 34.6184 157.213 43.7163 163.091 54.2837C168.985 64.8841 172.222 76.9375 172.222 89.4203C172.222 109.366 164.131 127.43 151.054 140.507C137.977 153.584 119.913 161.675 99.967 161.675C80.021 161.675 61.9573 153.584 48.8802 140.507C35.803 127.43 27.7124 109.366 27.7124 89.4203C27.7124 77.0531 30.8826 65.1153 36.6616 54.5974C42.4407 44.096 50.8451 35.0147 61.2804 28.3935C62.2546 27.7826 63.5425 28.0798 64.1699 29.0375C64.7808 30.0117 64.5001 31.3161 63.526 31.927C53.6685 38.1684 45.7595 46.7049 40.3272 56.6118C34.8784 66.5022 31.8898 77.7631 31.8898 89.4203C31.8898 108.21 39.5181 125.234 51.8358 137.551C64.1534 149.869 81.1603 157.497 99.967 157.497C118.757 157.497 135.781 149.869 148.098 137.551C160.416 125.234 168.044 108.21 168.044 89.4203C168.044 77.631 164.989 66.2711 159.458 56.3146C153.91 46.3416 145.853 37.7721 135.847 31.5638Z" fill="white"></path>
  <path d="M47.6418 81.0816L47.4106 81.4779H47.4602C47.5592 81.4449 47.6913 81.3953 47.8069 81.3128C47.972 81.2137 48.1371 81.0981 48.3022 80.9495C48.6985 80.6193 49.1113 80.1405 49.5076 79.6286C50.0029 79.0012 50.4653 78.2747 50.8615 77.5977L51.2578 76.9042C51.1257 77.0033 50.9936 77.1188 50.845 77.2344C50.3827 77.6307 49.9369 78.093 49.5241 78.5554C49.0122 79.1498 48.5499 79.7442 48.1702 80.2891C47.972 80.5863 47.8069 80.8505 47.6418 81.0816ZM54.329 63.794L54.2794 63.8105C54.7418 64.5866 55.039 65.3956 55.2536 65.957L55.2701 66.0066C55.2866 66.0561 55.3197 66.0891 55.3527 66.1552C55.3857 66.2047 55.4352 66.2707 55.4848 66.3368C55.6664 66.5349 55.9471 66.7826 56.2608 67.0633L56.3434 67.1294C56.525 67.311 56.7231 67.4761 56.9213 67.6742C57.1359 67.8724 57.3341 68.087 57.5487 68.3347C57.7469 68.5659 57.9285 68.8135 58.1266 69.0942C58.3082 69.3749 58.4734 69.6721 58.622 70.0189C58.7871 70.3491 58.8862 70.6958 58.9192 71.0261C58.9687 71.4058 58.9687 71.7691 58.9192 72.1158C58.8696 72.4461 58.7871 72.7763 58.6715 73.057C58.5724 73.3542 58.4403 73.6349 58.3082 73.8826C58.1927 74.0972 58.0771 74.2789 57.9615 74.4605L57.8624 74.6091C58.8862 74.8733 59.5466 75.2035 59.5962 75.2365C59.6952 75.2861 59.7778 75.3521 59.8273 75.4347C59.8934 75.5007 59.9429 75.5998 59.9594 75.6988C59.9759 75.7814 59.9924 75.897 59.9759 75.9795C59.9594 76.0786 59.9099 76.1777 59.8603 76.2602L59.8438 76.2768C59.7448 76.4088 59.2329 77.1354 58.5064 78.06C58.3248 78.2912 58.1266 78.5388 57.912 78.7865L58.4734 78.3737C58.8862 78.06 59.2989 77.7133 59.6787 77.3995L59.7117 77.383C60.2071 76.9868 60.6364 76.6235 60.9996 76.3923L61.0987 76.3263L61.1978 76.2437C61.4454 76.0456 61.6601 75.7649 61.8252 75.4512C62.0234 75.1209 62.1554 74.7412 62.2545 74.3449C62.3536 73.9321 62.4031 73.4863 62.4031 73.0405C62.4031 72.6112 62.3371 72.1819 62.238 71.7856C62.2215 71.7361 62.1885 71.67 62.1554 71.5875L61.9903 71.2737L61.7757 70.8775L61.495 70.4317C61.3464 70.2005 61.1648 69.9198 60.9996 69.6556C60.6859 69.2098 60.3887 68.7805 60.0915 68.3347C60.0585 68.3017 60.0089 68.2191 59.9924 68.1531C59.9759 68.087 59.9594 68.0375 59.9594 67.9714C59.9429 67.7898 59.9099 67.6247 59.8603 67.4431L59.7778 67.1294C59.6952 66.8321 59.5631 66.4854 59.365 66.1387C59.2164 65.858 59.0182 65.5608 58.7871 65.2801C58.655 65.1149 58.5064 64.9663 58.3413 64.8177C58.1762 64.6691 57.9945 64.5205 57.7964 64.3884C57.301 64.0582 56.8057 63.8766 56.3599 63.761C55.8976 63.6619 55.4683 63.6454 55.105 63.6784C54.8078 63.6949 54.5436 63.7445 54.329 63.794ZM54.0318 80.6523L54.2959 80.4377L54.5436 80.2395C55.1876 79.6946 55.815 79.0342 56.3929 78.3902C57.1359 77.5481 57.7799 76.7226 58.1927 76.1777L57.978 76.0951C57.7634 76.0291 57.5157 75.963 57.235 75.897C56.5745 75.7484 55.8811 75.6823 55.2041 75.6823C54.5766 75.6823 53.9657 75.7484 53.3713 75.8805C53.2557 76.1282 53.0741 76.4914 52.8594 76.9042C52.6778 77.2509 52.4632 77.6472 52.2155 78.06C51.8192 78.737 51.3734 79.48 50.8615 80.1735C50.4653 80.7349 50.0194 81.2467 49.5736 81.6925C49.9864 81.7091 50.4322 81.7091 50.8615 81.6925C51.4394 81.6595 52.0173 81.5935 52.5457 81.4449C52.7439 81.3953 52.9585 81.3128 53.2062 81.1807C53.4539 81.0486 53.718 80.8835 53.9987 80.6853L54.0318 80.6523ZM56.8883 81.0816C56.1948 81.4449 55.4683 81.7256 54.7252 81.8742C54.4445 82.0888 54.1473 82.2704 53.8501 82.4356C53.5364 82.6007 53.2227 82.7328 52.8925 82.8153C52.1329 82.997 51.3404 83.096 50.5643 83.1125C49.8048 83.1291 49.0618 83.0795 48.4013 83.03L47.9225 82.9639L47.5262 82.9144C47.4106 82.9309 47.295 82.9474 47.1795 82.9474C47.0309 82.9474 46.8988 82.9474 46.7667 82.9309C46.6181 82.8979 46.4695 82.8484 46.3209 82.7988C46.1888 82.7328 46.0402 82.6667 45.9081 82.5677L45.875 82.5511C45.5778 82.3365 45.3137 82.1384 45.0495 81.9402C44.8348 81.7751 44.6202 81.5935 44.422 81.4119C44.2734 81.4119 44.1083 81.3953 43.9597 81.3788C43.7451 81.3623 43.5469 81.3128 43.3323 81.2632C43.1011 81.2137 42.8369 81.1312 42.5727 81.0486C42.3086 80.9495 42.0444 80.8505 41.7637 80.7349C41.2188 80.5037 40.6739 80.2395 40.1455 79.9423C39.6172 79.6451 39.0888 79.3149 38.6265 78.9681C38.2962 78.737 37.9825 78.4893 37.7183 78.2581C37.4707 78.027 37.2395 77.7958 37.0414 77.5647L36.8928 77.3995L36.7607 77.2179C36.579 76.9372 36.4304 76.64 36.3149 76.3098C36.1993 75.9961 36.1167 75.6658 36.0507 75.3191C35.9681 74.9723 35.9186 74.6091 35.8856 74.2623C35.8525 73.9321 35.836 73.5854 35.8195 73.2386C35.803 72.7928 35.803 72.38 35.8195 72.0333C35.836 71.3893 35.869 70.9105 35.8856 70.8279C35.8856 70.7124 35.9186 70.6133 35.9846 70.5142C36.0342 70.4317 36.1167 70.3491 36.2158 70.2996C36.2983 70.2335 36.4139 70.2005 36.513 70.2005C36.579 70.184 36.6451 70.184 36.6946 70.2005C36.6286 69.9693 36.546 69.7382 36.4965 69.507C36.4304 69.2593 36.3809 69.0117 36.3644 68.764C36.3314 68.5163 36.3314 68.2686 36.3644 68.021C36.3974 67.8063 36.4635 67.5917 36.546 67.3935C36.6286 67.1789 36.7442 66.9973 36.8597 66.8156C36.9753 66.634 37.1074 66.4689 37.256 66.3203C37.4046 66.1552 37.5697 65.9901 37.7348 65.8414C38.1146 65.5277 38.5274 65.247 38.9732 65.0324C39.3365 64.8342 39.7162 64.6856 40.096 64.5866L40.1455 64.3554C40.1786 64.2233 40.2281 64.0912 40.2776 63.9426C40.5253 63.2326 40.8555 62.6217 41.3179 62.1759C41.7802 61.697 42.3746 61.3833 43.1506 61.2347C43.3983 61.1852 43.646 61.1687 43.8937 61.1522C44.1413 61.1357 44.389 61.1191 44.6367 61.1191C45.1981 61.1357 45.7595 61.1687 46.2548 61.2182C46.585 61.2347 46.8988 61.2677 47.1464 61.2677L47.8564 61.2843C48.3848 61.2843 48.9792 61.2843 49.5901 61.3173C50.0525 61.3503 50.5313 61.3833 50.9936 61.4824C51.4725 61.565 51.9183 61.6805 52.3311 61.8787C52.5787 61.9777 52.8099 62.1263 53.008 62.2915C53.1401 62.3905 53.2722 62.5061 53.3878 62.6217C53.619 62.5391 54.1804 62.341 54.9564 62.275C55.5013 62.2254 56.1452 62.2584 56.8387 62.4401C57.4001 62.5887 57.9945 62.8363 58.5724 63.2161C58.8201 63.3977 59.0513 63.5629 59.2494 63.7445C59.4806 63.9426 59.6787 64.1573 59.8603 64.3554C60.4382 65.0489 60.785 65.7589 61.0161 66.3698C61.2143 66.9477 61.2968 67.41 61.3299 67.6742L62.0729 68.7475C62.3206 69.1107 62.5682 69.4905 62.7829 69.8372C63.014 70.2005 63.2287 70.5638 63.3773 70.8775L63.4929 71.1417C63.5424 71.2407 63.5589 71.3233 63.592 71.4058C63.7406 71.9342 63.8066 72.4791 63.8066 73.024C63.8231 73.5854 63.7571 74.1468 63.625 74.6751C63.4929 75.2035 63.3113 75.7154 63.0471 76.1612C62.7994 76.607 62.4857 77.0033 62.1224 77.317L61.9573 77.4491L61.7757 77.5647C61.6271 77.6637 61.4455 77.7958 61.2473 77.9444L59.7778 79.1498C59.4806 79.3644 59.1834 79.5956 58.8696 79.8267C58.2422 80.2726 57.5817 80.7184 56.8883 81.0816ZM42.292 63.1831C42.0609 63.4142 41.8792 63.728 41.7306 64.0912L42.1269 63.9426C42.4572 63.827 42.8039 63.7115 43.2002 63.6289C43.5799 63.5629 44.0092 63.5133 44.4716 63.5629C44.7688 63.5794 45.0825 63.6454 45.4127 63.728C45.743 63.827 46.0732 63.9756 46.4199 64.1573C46.8492 64.3884 47.229 64.6361 47.5592 64.9003C47.939 65.1975 48.2527 65.5112 48.5169 65.8249C48.8306 66.1882 49.0618 66.5349 49.2434 66.8487C49.4415 67.1954 49.5736 67.5091 49.6397 67.7073C49.9699 67.7403 50.3002 67.7568 50.6304 67.7733L51.2413 67.8063C51.8522 67.8393 52.4632 67.8889 53.0576 68.0045C53.685 68.1366 54.2959 68.3182 54.8739 68.6319C54.9729 68.6814 55.072 68.7475 55.1711 68.8135C55.2536 68.8796 55.3362 68.9621 55.4187 69.0447C55.5343 69.1933 55.6334 69.3584 55.6994 69.5235C55.782 69.7052 55.815 69.9033 55.848 70.0849C55.8645 70.2665 55.8645 70.4482 55.848 70.6298C55.8315 70.8114 55.815 70.9931 55.7655 71.1582C55.6994 71.5214 55.5838 71.8847 55.4352 72.2314C55.3031 72.5782 55.138 72.9249 54.9564 73.2551C54.8078 73.5523 54.6592 73.8165 54.5106 74.0642L54.362 74.3119C54.6097 74.2954 54.8408 74.2789 55.072 74.2789C55.5013 74.2623 55.9141 74.2789 56.3104 74.3284L56.4755 74.1137C56.558 74.0147 56.6406 73.8991 56.7231 73.767C56.9213 73.5028 57.1029 73.1726 57.268 72.8093C57.3836 72.5286 57.4827 72.2149 57.5322 71.9177C57.5487 71.7031 57.5652 71.4719 57.5322 71.2572C57.5157 71.0426 57.4497 70.8114 57.3506 70.5968C57.235 70.3326 57.0864 70.0849 56.9378 69.8703C56.7892 69.6391 56.6406 69.441 56.4755 69.2428C56.3103 69.0447 56.1287 68.8631 55.9471 68.6814C55.7655 68.4998 55.5838 68.3512 55.4187 68.1861L55.2701 68.0705C54.9564 67.7898 54.6592 67.5256 54.4115 67.2449C54.329 67.1294 54.2299 67.0138 54.1639 66.8982C54.0813 66.7826 54.0152 66.6505 53.9657 66.5019C53.8171 66.1221 53.6355 65.6433 53.4043 65.148C53.1732 64.6691 52.8925 64.1903 52.5622 63.8105C52.4467 63.6619 52.2981 63.5133 52.166 63.3977C52.0339 63.2987 51.9018 63.2161 51.7532 63.1501C51.489 63.0345 51.1753 62.9354 50.8285 62.8694C50.4157 62.7868 49.9534 62.7373 49.5076 62.7208C48.9297 62.6877 48.3683 62.6877 47.8564 62.6877L47.1299 62.6712C46.8162 62.6712 46.4695 62.6382 46.1062 62.6217L45.2806 62.5556C44.9504 62.5391 44.6202 62.5226 44.3065 62.5391C43.9927 62.5391 43.679 62.5722 43.4148 62.6217C42.936 62.7043 42.5727 62.9024 42.292 63.1831ZM37.8504 72.6277L37.7018 72.4956C37.5367 72.347 37.3716 72.2149 37.223 72.0993V72.3305C37.2065 72.7763 37.223 73.2882 37.256 73.8C37.289 74.2293 37.3386 74.6421 37.4211 75.0384C37.4872 75.3356 37.5532 75.6163 37.6523 75.864C37.7183 76.0786 37.8174 76.2768 37.9165 76.4254L38.0981 76.6565C38.3293 76.9207 38.643 77.2179 39.0227 77.5151C39.419 77.8288 39.8648 78.1426 40.3437 78.4233C40.8225 78.7205 41.3344 79.0012 41.8297 79.2323C42.2095 79.3974 42.5727 79.5626 42.936 79.6781L42.7544 79.3974C42.5397 79.0177 42.3581 78.6214 42.2095 78.2086C42.1269 77.9774 42.1104 77.9609 41.9948 77.7958L41.3344 76.8051C41.0372 76.3923 40.6739 75.9135 40.2941 75.4016C39.9804 74.9889 39.6502 74.5761 39.3035 74.1633C39.0558 73.8826 38.8246 73.6184 38.5604 73.3542C38.3458 73.1065 38.1311 72.8919 37.9 72.6772L37.8504 72.6277ZM38.5274 70.9765C38.676 71.2903 38.8081 71.5379 38.8741 71.67C39.1218 71.9012 39.3695 72.1489 39.6172 72.413C39.8648 72.6772 40.1125 72.9579 40.3602 73.2551C40.6904 73.6349 40.9876 73.9982 41.2518 74.3449L41.3839 74.51C41.2518 73.6019 41.1032 72.6442 41.0041 71.7031C40.9216 71.1251 40.872 70.5472 40.8555 70.0189C40.8225 69.4575 40.8225 68.9456 40.8555 68.4668C40.872 68.1366 40.9051 67.8228 40.9711 67.5256C41.0372 67.2284 41.1197 66.9642 41.2353 66.7C41.3179 66.5514 41.4004 66.4028 41.4995 66.2707C41.5986 66.1387 41.6976 66.0066 41.8297 65.9075L41.9618 65.8084L42.1104 65.7094C42.3086 65.5938 42.5232 65.5112 42.7378 65.4617C42.969 65.4121 43.2002 65.3956 43.4313 65.3956C43.646 65.4121 43.8606 65.4452 44.0588 65.4947C44.2734 65.5607 44.4716 65.6268 44.6697 65.7094C45.2311 65.924 45.776 66.2542 46.3209 66.568L46.8988 66.8982C47.1299 67.0303 47.3611 67.1459 47.5757 67.2449C47.6913 67.2945 47.8069 67.3605 47.939 67.3935L47.8729 67.2945C47.7574 67.1293 47.6253 66.9312 47.4602 66.7331C47.262 66.5019 47.0309 66.2707 46.7502 66.0396C46.4695 65.8249 46.1392 65.5938 45.7595 65.3956C45.3632 65.181 44.9999 65.0654 44.6697 64.9994C44.356 64.9333 44.0423 64.9333 43.7616 64.9663C43.2002 65.0324 42.6553 65.247 42.1269 65.4452L42.0444 65.4782C41.8462 65.5608 41.6646 65.6268 41.4499 65.6928C41.2518 65.7589 41.0537 65.8084 40.8555 65.858H40.7895C40.4593 65.9075 40.0795 66.0396 39.6997 66.2377C39.3365 66.4194 38.9732 66.6505 38.6595 66.9147C38.5274 67.0303 38.4118 67.1459 38.2962 67.2614C38.1972 67.3605 38.1146 67.4761 38.0321 67.5917C37.9495 67.7073 37.9 67.8228 37.8504 67.9219C37.8009 68.021 37.7844 68.1366 37.7679 68.2191C37.7514 68.3182 37.7514 68.4503 37.7679 68.5989C37.7679 68.7475 37.8009 68.9126 37.8504 69.0942C37.8835 69.2759 37.933 69.4575 37.999 69.6391C38.0486 69.8207 38.1311 70.0354 38.2137 70.2335C38.3128 70.4977 38.4283 70.7619 38.5274 70.9765ZM45.8916 80.4377C45.8916 80.5367 45.8585 80.6523 45.809 80.7514L46.0732 80.966L46.2878 80.6028C46.453 80.3386 46.6511 80.0249 46.8823 79.6946C47.262 79.1498 47.7078 78.5388 48.2197 77.9114C48.7315 77.3005 49.3094 76.6895 49.9369 76.1612C50.3332 75.8309 50.746 75.5172 51.1753 75.2695C51.588 75.0219 52.0008 74.8237 52.4467 74.6751L52.7273 74.2789L53.0411 73.767C53.2722 73.4037 53.5199 72.991 53.7511 72.5451C53.9327 72.1984 54.0978 71.8351 54.2134 71.4884C54.3125 71.2407 54.3785 70.9931 54.4115 70.7619C54.4445 70.5638 54.4611 70.3986 54.4446 70.25C54.4446 70.184 54.428 70.1179 54.395 70.0684C54.3785 70.0189 54.362 69.9858 54.3455 69.9693L54.2959 69.9198L54.2299 69.8703C53.7841 69.6391 53.3053 69.4905 52.7934 69.3914C52.2815 69.2924 51.7201 69.2428 51.1588 69.2098L50.5148 69.1768C49.5736 69.1272 48.6325 69.0777 47.7904 68.83C47.0474 68.6154 46.3374 68.2026 45.6604 67.8063L45.4788 67.7073C45.1155 67.4926 44.7688 67.2945 44.4551 67.1459C44.1413 66.9973 43.8441 66.8817 43.5799 66.8321C43.4313 66.7991 43.2827 66.7991 43.1506 66.8156C43.0351 66.8321 42.9195 66.8652 42.8039 66.9312L42.7378 66.9807C42.7048 67.0138 42.6553 67.0468 42.6223 67.0963C42.5892 67.1624 42.5562 67.2284 42.5067 67.2945C42.4737 67.377 42.4406 67.4761 42.4076 67.5752C42.3746 67.6742 42.3581 67.7898 42.3251 67.9219C42.2755 68.1696 42.259 68.4503 42.2425 68.764C42.226 69.0942 42.226 69.474 42.2425 69.8703C42.3086 71.2077 42.5562 72.7928 42.7709 74.2954L42.8699 74.9393C42.936 75.4182 43.0185 75.8475 43.1011 76.2602C43.1837 76.6235 43.2662 76.9537 43.3653 77.2509L43.9432 77.7133C44.1413 77.8949 44.3725 78.093 44.6037 78.3077C44.8513 78.5388 45.066 78.77 45.2641 79.0012C45.3632 79.1002 45.4292 79.1993 45.5118 79.2984C45.5778 79.3974 45.6439 79.513 45.7099 79.6121C45.7595 79.7277 45.8255 79.8433 45.8585 79.9753C45.8916 80.1239 45.9081 80.2726 45.8916 80.4377Z" fill="white"></path>
  <path d="M156.073 98.3528C154.901 98.3693 153.712 98.1877 152.54 98.0391C151.351 97.8905 151.301 97.8244 150.806 97.164C150.41 96.6521 150.013 96.0742 149.65 95.5293C149.171 94.8193 148.626 94.0268 148.511 93.8286C147.867 92.6233 146.728 91.8307 145.836 90.8235C145.572 90.5098 145.308 90.1631 145.093 89.7833C144.68 89.0568 144.466 88.3303 144.466 87.6038C144.482 86.8608 144.73 86.1508 145.258 85.4242C145.687 84.8298 146.15 84.2849 146.662 83.8226C147.19 83.3438 147.801 82.9475 148.511 82.6668C149.056 82.4687 149.568 82.0229 150.046 81.6761C150.558 81.2964 151.12 81.0487 151.698 80.9331C152.276 80.8175 152.87 80.8505 153.497 80.9991C153.696 81.0487 153.861 81.0652 154.009 81.0322C154.141 80.9991 154.273 80.9166 154.406 80.7515C154.917 80.124 155.611 79.8433 156.42 79.8103C157.345 79.7773 158.055 79.5131 159.012 79.6617C159.442 79.7278 159.871 79.8764 160.267 80.124C160.845 80.4708 161.472 80.6029 162.034 80.9661C162.232 81.0982 162.43 81.2633 162.612 81.4284C162.992 81.7752 163.371 82.1384 163.751 82.5017L163.933 82.6833C164.428 83.1457 164.907 83.5915 165.039 84.3675C165.056 84.4336 165.122 84.5326 165.204 84.6317C165.254 84.6977 165.303 84.7638 165.336 84.8298C165.914 85.7875 166.244 86.7452 166.244 87.6863C166.228 88.644 165.898 89.5852 165.171 90.5098C164.676 91.1042 164.246 91.7317 163.883 92.3921C163.503 93.0526 163.157 93.7461 162.876 94.4561C162.414 95.5789 161.472 96.553 160.267 97.23C159.062 97.9235 157.592 98.3198 156.073 98.3528ZM155.446 81.2964C155.941 81.5605 156.238 81.7917 156.403 82.1054C156.618 82.4687 156.602 82.9145 156.519 83.6575C156.503 83.8061 156.502 83.9382 156.536 84.0373C156.569 84.1198 156.635 84.2024 156.75 84.2684C156.915 84.384 157.064 84.4996 157.196 84.6152C157.345 84.7473 157.493 84.8794 157.658 84.9784L157.807 84.8463C158.022 84.6647 158.22 84.4666 158.401 84.2684C158.715 83.9217 159.062 83.6905 159.458 83.5254C159.838 83.3768 160.251 83.2942 160.713 83.3108L162.216 83.2777C162.529 83.2612 162.826 83.2943 163.14 83.3438C162.975 83.1291 162.793 82.9475 162.612 82.7659C162.298 82.4522 161.935 82.188 161.572 81.9403C161.159 81.6761 159.557 80.834 158.979 80.7845C158.798 80.7515 158.599 80.7515 158.418 80.768C157.823 80.8175 156.123 80.8671 155.677 81.1147C155.594 81.1643 155.512 81.2303 155.446 81.2964ZM149.072 92.7389C148.957 92.4912 148.858 92.227 148.759 91.9628C148.577 91.4014 148.395 90.84 148.214 90.2786C148.049 89.7007 147.917 89.1228 147.784 88.5449C147.669 87.9505 147.669 87.3891 147.834 86.8773C147.999 86.3654 148.329 85.9031 148.841 85.5068C149.353 85.127 149.749 84.6152 150.162 84.1033C150.36 83.8556 150.542 83.608 150.773 83.3603C151.4 82.6503 152.011 82.254 152.655 82.1715C153.316 82.0889 153.993 82.3366 154.752 82.8815L155.33 83.2943C155.429 82.997 155.446 82.7989 155.38 82.6668C154.967 81.8247 151.021 82.0724 149.667 83.1952C149.403 83.4263 149.072 83.5584 148.742 83.707C148.56 83.7731 148.362 83.8556 148.197 83.9547C147.718 84.2189 147.306 84.5822 146.926 84.9784C146.546 85.3747 146.216 85.8205 145.886 86.2828C145.572 86.7452 145.473 87.224 145.506 87.6863C145.555 88.1817 145.753 88.677 146.018 89.1393C146.216 89.4696 146.43 89.7833 146.662 90.064C146.893 90.3447 147.14 90.5924 147.421 90.8235C147.817 91.1703 148.181 91.55 148.511 91.9463C148.709 92.2105 148.891 92.4747 149.072 92.7389ZM158.335 96.6191C159.095 96.487 159.739 96.2393 160.284 95.8761C160.812 95.4963 161.241 94.9844 161.539 94.291C161.869 93.4819 162.315 92.4417 162.777 91.6986C163.355 90.7905 164.114 90.13 164.659 89.2054C165.022 88.5945 165.138 88 165.089 87.4221C165.039 86.8277 164.791 86.2663 164.445 85.7049C164.131 85.2096 163.735 84.8629 163.272 84.6647C162.793 84.4501 162.265 84.384 161.654 84.4501C161.043 84.5326 160.515 84.4336 159.904 84.7142C159.623 84.8463 159.342 85.061 159.062 85.3252C158.765 85.6059 158.599 85.8205 158.55 86.0517C158.5 86.2828 158.566 86.5635 158.715 86.9268C159.128 87.9175 159.326 88.9082 159.309 89.9154C159.293 90.9226 159.045 91.9463 158.616 92.937C158.451 93.3168 158.269 93.6965 158.088 94.0598C157.889 94.4891 157.807 96.3879 158.302 96.6026L158.335 96.6191ZM156.948 96.5696C156.833 96.0577 156.767 95.4303 156.783 94.8358C156.8 94.2084 156.915 93.5975 157.146 93.1517C157.51 92.4582 157.757 91.7482 157.906 91.0052C158.055 90.2621 158.088 89.5026 158.005 88.71C157.922 87.901 157.691 87.158 157.328 86.514C156.965 85.8701 156.453 85.3252 155.776 84.8463L155.462 84.6317C154.95 84.2849 154.455 83.9382 153.993 83.6245C153.563 83.3438 153.2 83.2117 152.87 83.2282C152.523 83.2447 152.193 83.4263 151.813 83.7566C151.582 83.9547 151.367 84.2024 151.169 84.4335C150.591 85.094 149.947 85.738 149.32 86.3489C149.089 86.5801 148.907 86.8277 148.825 87.1084C148.742 87.3561 148.742 87.6203 148.808 87.9175C149.089 88.9907 149.353 90.064 149.7 91.1372C150.046 92.1775 150.443 93.2177 150.955 94.2084C151.367 94.9679 151.879 95.5623 152.507 95.9916C153.118 96.4209 153.861 96.6851 154.736 96.7677C155.33 96.8337 156.321 96.6686 156.948 96.5696Z" fill="white"></path>
  <path d="M45.2642 81.9729C45.3137 81.5436 45.71 81.2464 46.1228 81.2959C46.5521 81.3455 46.8493 81.7252 46.7998 82.1545C46.453 84.978 46.2549 87.7024 46.2053 90.3443C45.7595 109.729 52.6448 125.002 63.7571 135.933C74.8859 146.88 90.2747 153.484 106.786 155.499C109.725 155.862 112.681 156.077 115.636 156.143C116.066 156.143 116.396 156.49 116.396 156.919C116.396 157.332 116.033 157.678 115.62 157.662C112.582 157.596 109.56 157.381 106.605 157.034C89.7628 154.971 74.0603 148.234 62.6839 137.022C51.2909 125.811 44.224 110.158 44.6698 90.3112C44.7193 87.5868 44.9174 84.8129 45.2642 81.9729Z" fill="white"></path>
  <path d="M155.578 97.6106C155.561 97.1813 155.908 96.8346 156.321 96.8346C156.75 96.818 157.097 97.1648 157.097 97.5941C157.312 111.926 152.92 123.715 145.77 133.292C137.217 144.718 124.767 152.957 111.591 158.555C111.211 158.72 110.766 158.538 110.6 158.158C110.419 157.762 110.6 157.316 110.997 157.151C123.925 151.636 136.16 143.562 144.532 132.367C151.483 123.055 155.776 111.579 155.578 97.6106Z" fill="white"></path>
  <path d="M44.7853 92.1612C44.0918 89.5359 41.6151 84.731 39.2539 83.245C38.3953 82.7001 36.8267 82.0892 36.3479 83.3606C36.1168 83.9715 36.3644 84.5659 37.0909 84.9622C37.3881 85.1108 38.2467 85.2924 38.1642 85.7217C38.0981 86.085 37.7349 86.1345 37.4047 86.151C36.2654 86.1676 35.3077 85.441 35.1756 84.2357C35.06 82.9973 35.9516 81.759 37.0909 81.5608C38.0156 81.3792 38.9402 81.7755 39.7493 82.2048C42.3086 83.5587 43.5139 85.8538 44.6697 88.2975C45.099 89.7506 44.8514 91.9961 44.7853 92.1612Z" fill="white"></path>
  <path d="M46.7998 103.456C46.9319 105.156 47.4437 107.683 46.5191 108.029C46.1558 106.609 44.3395 105.949 43.3158 105.553C41.384 104.694 38.9568 104.413 37.6193 102.729C37.0414 102.003 36.6782 101.111 36.4305 100.087C36.1003 98.6342 35.9517 97.1812 35.9021 95.7447C35.8361 94.2421 36.0342 92.4919 35.9021 91.0884C35.8526 90.5435 35.8031 89.9656 36.5131 89.751C37.2396 89.5033 37.5038 90.0152 37.7679 90.5105C37.8175 90.6096 37.867 90.7086 37.9331 90.7912C38.9568 92.2607 39.7824 93.5486 41.2354 94.6384C42.6223 95.6456 43.8277 96.5207 44.8679 97.8912C46.4695 99.9551 46.6016 100.814 46.7998 103.456ZM39.1879 94.6054C40.2447 96.8509 41.7472 98.7993 43.2663 100.764C43.9763 101.672 44.6863 102.597 45.3633 103.555C45.4623 103.01 45.4788 102.432 45.4128 101.87C45.3137 101.111 45.0661 100.384 44.6698 99.8891C44.3065 99.4102 43.9102 98.9644 43.514 98.5186C43.1012 98.0893 42.6884 97.66 42.2426 97.2472C41.6977 96.7188 41.1033 96.2235 40.5089 95.7447C40.063 95.3649 39.6172 95.0016 39.1879 94.6054ZM44.8019 104.925C44.2735 104.083 43.6791 103.29 43.0847 102.481C41.5986 100.5 40.1126 98.5021 38.7091 96.4712C38.0652 95.5465 37.5698 94.5558 37.091 93.5486C37.0579 93.7963 37.0414 94.044 37.0414 94.2916C37.0084 94.8365 37.0249 95.4144 37.0579 95.9593C37.1075 97.0986 37.3221 98.2379 37.5368 99.3772C37.7349 100.368 37.867 101.193 38.544 102.003C39.4026 103.026 41.0537 103.456 42.2921 103.951L44.8019 104.925Z" fill="white"></path>
  <path d="M55.3197 126.407L54.8244 125.779C54.8409 124.937 54.6427 124.508 54.2134 123.748C53.2723 122.18 52.133 119.818 52.2981 118.002C52.4467 116.648 53.0907 115.344 54.263 114.188C54.5272 113.924 54.7583 113.643 54.9565 113.329C55.1546 113.032 55.3197 112.702 55.4848 112.355C55.9306 111.381 56.492 110.489 57.1525 109.697C57.813 108.888 58.5725 108.178 59.3981 107.517C60.0585 107.022 60.6695 106.477 61.2969 105.932C61.6106 105.652 61.9243 105.387 62.2876 105.074L62.4692 104.925C62.7664 104.661 63.0636 104.397 63.4104 104.215C63.9057 103.918 64.4341 103.72 64.8799 103.819C65.3587 103.934 65.722 104.364 65.8211 105.338C65.8706 105.916 66.0027 106.461 66.2008 106.989C66.399 107.501 66.6632 108.013 66.9769 108.508C67.5548 109.383 67.819 110.275 67.7859 111.183C67.7529 112.058 67.4557 112.933 66.9108 113.808C66.6631 114.205 66.366 114.568 66.0687 114.931C65.8376 115.212 65.6064 115.492 65.4248 115.773C64.6157 116.945 63.7241 118.019 62.7169 118.993C61.7097 119.967 60.5869 120.826 59.3485 121.569C58.6385 121.998 58.0276 122.526 57.5323 123.17C57.0204 123.798 56.6241 124.541 56.3434 125.366C56.0297 126.291 56.3104 126.885 56.5746 127.777L55.3197 126.407ZM54.4116 121.585C54.5767 121.8 54.7418 122.031 54.9234 122.295C54.8904 121.255 55.072 120.281 55.4353 119.406C55.8151 118.514 56.393 117.705 57.1525 117.011C57.9781 116.235 58.6551 115.377 59.233 114.469C59.7943 113.544 60.2732 112.537 60.686 111.497L61.1318 110.275C61.6767 108.822 62.2381 107.336 63.1462 105.982C62.5848 106.51 62.0069 107.022 61.429 107.517C60.7685 108.079 60.1246 108.607 59.4806 109.119C58.9027 109.581 58.3744 110.11 57.9285 110.688C57.4827 111.265 57.103 111.876 56.8058 112.553C56.5746 113.049 56.3269 113.511 56.0297 113.957C55.7325 114.386 55.3858 114.799 54.9565 115.162C54.1639 115.839 53.6355 117.011 53.5365 118.266C53.4374 119.406 53.6851 120.628 54.4116 121.585ZM56.0792 122.559C56.0958 122.807 56.0627 123.038 56.0132 123.269C56.5746 122.46 57.2185 121.767 57.9285 121.123C58.8037 120.363 59.7448 119.686 60.7025 119.059C61.0988 118.795 61.4455 118.514 61.7592 118.217C62.0895 117.903 62.3867 117.556 62.6508 117.193C63.1132 116.549 63.6085 115.938 64.1039 115.311L64.9129 114.271L65.3918 113.643C65.5404 113.445 65.689 113.23 65.8211 112.999C66.2173 112.388 66.432 111.777 66.465 111.166C66.4815 110.555 66.3164 109.928 65.9201 109.301C65.5734 108.756 65.3092 108.194 65.0946 107.583C64.9459 107.138 64.8139 106.675 64.7148 106.196C64.5497 106.362 64.3846 106.527 64.2525 106.708C64.0213 107.022 63.8397 107.369 63.6581 107.715C63.0802 108.822 62.6178 110.011 62.172 111.183C61.9574 111.744 61.7427 112.306 61.495 112.9C61.1153 113.841 60.6529 114.733 60.1081 115.558C59.5467 116.384 58.9027 117.16 58.1102 117.837C57.4002 118.464 56.8553 119.158 56.5085 119.951C56.1618 120.727 56.0297 121.602 56.0792 122.559Z" fill="white"></path>
  <path d="M50.9441 120.446C50.036 119.109 48.7151 117.623 47.7409 116.302C46.8328 115.08 45.6109 114.122 44.1744 113.61C43.2993 113.297 41.7802 113.049 41.5986 114.287C41.4995 114.882 41.8628 115.377 42.5893 115.575C42.8865 115.658 43.679 115.641 43.6956 116.054C43.7121 116.384 43.3818 116.5 43.1011 116.566C42.0774 116.813 41.0702 116.351 40.7235 115.294C40.3767 114.221 40.9216 112.933 41.9123 112.52C42.6883 112.19 43.613 112.355 44.4056 112.587C46.9648 113.297 48.2197 115.129 49.7553 117.094C50.4158 118.3 50.9606 120.281 50.9441 120.446Z" fill="white"></path>
  <path d="M66.7292 138.806C65.1276 137.353 62.915 131.954 63.0801 129.642C63.1627 128.701 63.5755 127.182 64.7973 127.529C65.3752 127.694 65.689 128.222 65.5734 128.982C65.5238 129.295 65.1936 130.022 65.5569 130.203C65.8706 130.369 66.1018 130.121 66.2999 129.873C66.9438 129.031 66.9438 127.892 66.1017 127.132C65.2431 126.356 63.8066 126.34 63.0306 127.083C62.3866 127.677 62.1555 128.602 62.0399 129.427C61.6271 132.119 62.6013 134.232 63.7901 136.478C64.6487 137.601 66.5806 138.756 66.7292 138.806Z" fill="white"></path>
  <path d="M74.5227 144.585C75.7115 145.823 78.0562 147.59 78.9313 147.128C77.8415 145.988 78.4194 144.288 78.7992 143.264C79.4431 141.217 80.8631 139.186 80.4834 137.056C80.3182 136.148 79.9055 135.256 79.278 134.397C78.4194 133.175 77.4287 132.086 76.3555 131.079C75.2657 130.022 73.8127 128.998 72.8385 127.958C72.4587 127.562 72.0625 127.132 71.4185 127.512C70.758 127.908 70.9562 128.453 71.1543 128.982C71.2039 129.081 71.2369 129.196 71.2699 129.295C71.6827 131.045 72.0955 132.548 71.9469 134.364C71.7818 136.082 71.6497 137.584 71.9799 139.301C72.4587 141.877 72.6734 142.653 74.5227 144.585ZM73.3008 132.796C74.2915 135.091 74.7538 137.535 75.2162 140.011C75.4308 141.151 75.6455 142.306 75.9262 143.462C75.4473 143.181 75.0015 142.802 74.6218 142.372C74.1099 141.795 73.7466 141.118 73.6145 140.49C73.5155 139.896 73.4329 139.285 73.3669 138.69C73.3008 138.096 73.2678 137.485 73.2348 136.874C73.2018 136.115 73.2348 135.338 73.2678 134.562C73.2843 133.968 73.3008 133.39 73.3008 132.796ZM77.3296 143.958C77.049 143 76.8508 142.009 76.6362 141.018C76.1408 138.558 75.629 136.115 75.0345 133.687C74.7538 132.581 74.3576 131.541 73.9118 130.501C74.1099 130.649 74.308 130.798 74.5062 130.963C74.9355 131.31 75.3483 131.706 75.761 132.102C76.5866 132.895 77.2966 133.836 78.0066 134.761C78.6175 135.553 79.1624 136.214 79.311 137.27C79.5257 138.591 78.7331 140.143 78.2873 141.415L77.3296 143.958Z" fill="white"></path>
  <path d="M85.6845 122.08C85.6184 121.667 85.8991 121.27 86.3284 121.204C86.7412 121.138 87.1375 121.419 87.2035 121.832C88.508 129.956 92.3717 137.7 97.8205 143.908C103.236 150.083 110.204 154.739 117.799 156.754C118.212 156.869 118.443 157.282 118.344 157.695C118.229 158.108 117.816 158.339 117.403 158.24C109.511 156.143 102.279 151.322 96.6647 144.915C91.0342 138.492 87.0384 130.484 85.6845 122.08Z" fill="white"></path>
  <path d="M87.4346 123.104C87.7649 122.592 88.4584 121.42 89.0528 119.703C89.8618 117.358 90.4893 114.006 89.7628 109.961C89.2839 107.187 88.1612 103.901 85.6349 102.382C84.4295 101.655 83.4554 101.672 83.3563 101.672C83.1912 101.688 83.0261 101.738 82.9105 101.854C82.8775 101.887 81.7712 102.844 80.7144 104.561C79.6577 106.279 78.634 108.788 78.8156 111.843C78.9312 113.709 79.1789 115.327 79.6412 116.763C80.7144 120.099 82.9435 121.998 86.0147 123.467C86.7412 123.83 87.22 123.781 87.4346 123.104ZM84.7598 121.106C82.927 119.934 81.7051 118.415 81.0116 116.318C80.5989 115.046 80.3677 113.56 80.2686 111.76C80.12 109.383 80.6649 107.401 81.9033 105.404C81.6721 107.913 81.3749 111.562 81.7877 113.907C82.2665 116.483 83.3398 118.91 84.7598 121.106ZM82.6793 106.163C82.993 108.376 83.4223 111.315 83.7526 113.131C84.3305 116.318 85.123 119.224 85.6679 121.056C84.2149 118.877 83.1086 116.367 82.6298 113.775C82.3491 112.239 82.4316 109.564 82.5802 107.286C82.6133 106.906 82.6463 106.526 82.6793 106.163ZM83.0756 103.785C83.2077 103.637 83.2242 103.604 83.3563 103.455C83.67 104.116 84.0828 105.073 84.5451 106.51C85.5688 109.664 86.3284 115.063 86.4274 121.073C85.8826 119.273 85.057 116.285 84.4626 112.999C83.9012 109.944 83.4884 106.857 83.0756 103.785ZM84.2644 103.323C86.7907 104.281 87.897 107.732 88.3428 110.208C88.9537 113.676 88.6235 117.275 87.187 120.495C87.4677 114.221 86.4274 109.383 85.4037 106.262C84.9909 104.991 84.5781 104 84.2644 103.323Z" fill="white"></path>
  <path d="M89.8619 134.382C88.4089 132.12 85.3872 128.52 82.5472 127.645C81.54 127.348 79.8889 127.447 79.8229 128.751C79.7898 129.379 80.2026 129.874 80.9787 130.006C81.2924 130.072 82.1345 129.973 82.184 130.403C82.2335 130.766 81.9033 130.914 81.6226 131.014C80.5659 131.36 79.4596 130.981 79.0138 129.907C78.5349 128.801 78.9808 127.298 79.9714 126.787C83.0426 125.152 86.8072 128.95 88.64 130.914C89.4491 132.12 89.8619 134.2 89.8619 134.382Z" fill="white"></path>
  <path d="M96.3345 142.455C96.5987 143.132 96.9455 144.272 97.4573 144.866C97.9527 145.394 98.6131 145.394 98.9929 145.361C98.3324 144.503 99.0589 143.413 99.6699 142.753C100.793 141.415 102.493 140.325 102.873 138.608C103.038 137.865 102.989 137.073 102.807 136.214C102.526 135.025 102.13 133.902 101.635 132.813C101.139 131.673 100.38 130.435 99.9671 129.362C99.802 128.949 99.6368 128.503 99.0259 128.586C98.415 128.668 98.382 129.147 98.382 129.593C98.3655 129.692 98.3655 129.791 98.349 129.874C98.1343 131.327 97.9692 132.581 97.2922 133.902C96.6318 135.157 96.0539 136.247 95.7732 137.634C95.3274 139.731 95.542 140.424 96.3345 142.455ZM98.7948 133.143C98.8278 135.19 98.3985 137.172 97.9857 139.186C97.7876 140.111 97.5894 141.052 97.4408 141.993C97.1601 141.646 96.9455 141.217 96.7969 140.771C96.5987 140.177 96.5162 139.549 96.6317 139.037C96.7308 138.559 96.8629 138.08 97.0115 137.617C97.1436 137.139 97.3087 136.676 97.4739 136.197C97.6885 135.62 97.9527 135.042 98.2169 134.464C98.415 134.034 98.6131 133.589 98.7948 133.143ZM98.349 142.819C98.4315 142.01 98.5801 141.2 98.7452 140.391C99.125 138.377 99.5048 136.363 99.8185 134.365C99.9671 133.44 99.9836 132.532 99.9671 131.607C100.083 131.789 100.182 131.954 100.281 132.136C100.495 132.548 100.677 132.961 100.875 133.391C101.238 134.249 101.486 135.174 101.734 136.098C101.948 136.891 102.13 137.551 101.932 138.394C101.668 139.467 100.595 140.375 99.8515 141.2L98.349 142.819Z" fill="white"></path>
  <path d="M113.391 155.796C114.431 155.103 114.415 154.162 113.936 153.353C112.929 151.636 111.69 149.06 111.888 147.111C112.037 145.625 112.747 144.205 114.002 142.967C114.299 142.67 114.547 142.373 114.761 142.042C114.976 141.696 115.174 141.349 115.339 140.986C115.818 139.912 116.429 138.955 117.156 138.096C117.866 137.221 118.691 136.445 119.599 135.735C120.309 135.19 120.986 134.612 121.647 134.018C121.993 133.721 122.34 133.423 122.753 133.077L122.935 132.911C123.265 132.647 123.579 132.367 123.958 132.152C124.503 131.838 125.065 131.624 125.56 131.723C126.088 131.855 126.468 132.317 126.567 133.374C126.633 134.001 126.782 134.596 126.98 135.174C127.195 135.735 127.492 136.28 127.822 136.808C128.449 137.782 128.73 138.74 128.697 139.714C128.664 140.672 128.334 141.63 127.739 142.571C127.459 143 127.145 143.396 126.831 143.793C126.584 144.09 126.336 144.387 126.121 144.701C125.246 145.972 124.272 147.144 123.182 148.201C122.093 149.258 120.871 150.183 119.517 150.992C118.757 151.437 118.097 152.032 117.552 152.709C116.99 153.402 116.561 154.211 116.264 155.103C116.231 155.697 115.455 156.523 113.391 155.796ZM114.167 150.992C114.349 151.223 114.53 151.487 114.728 151.768C114.679 150.628 114.877 149.588 115.273 148.63C115.686 147.656 116.313 146.781 117.139 146.022C118.047 145.196 118.79 144.271 119.401 143.264C120.029 142.274 120.54 141.184 120.986 140.044L121.482 138.74C122.076 137.138 122.67 135.537 123.678 134.067C123.067 134.645 122.439 135.19 121.795 135.735C121.085 136.329 120.375 136.907 119.682 137.485C119.054 137.981 118.476 138.542 117.998 139.169C117.519 139.797 117.106 140.474 116.776 141.2C116.528 141.729 116.264 142.24 115.934 142.703C115.603 143.182 115.224 143.627 114.778 144.024C113.903 144.75 113.341 146.022 113.209 147.376C113.11 148.63 113.374 149.951 114.167 150.992ZM115.983 152.065C116 152.329 115.95 152.577 115.901 152.824C116.495 151.949 117.205 151.19 117.981 150.496C118.922 149.671 119.963 148.944 121.003 148.251C121.416 147.987 121.795 147.673 122.142 147.343C122.505 147.012 122.819 146.633 123.116 146.236C123.612 145.543 124.156 144.866 124.685 144.205L125.576 143.083L126.088 142.389C126.253 142.174 126.419 141.943 126.567 141.696C126.98 141.035 127.228 140.358 127.261 139.698C127.294 139.037 127.096 138.36 126.666 137.683C126.303 137.089 126.006 136.478 125.775 135.817C125.61 135.339 125.477 134.827 125.378 134.298C125.18 134.48 125.015 134.678 124.866 134.876C124.619 135.207 124.421 135.586 124.223 135.95C123.595 137.155 123.1 138.443 122.604 139.714C122.373 140.325 122.142 140.936 121.878 141.58C121.449 142.604 120.953 143.578 120.359 144.47C119.748 145.361 119.038 146.187 118.196 146.93C117.403 147.607 116.809 148.366 116.446 149.208C116.066 150.067 115.917 151.008 115.983 152.065Z" fill="white"></path>
  <path d="M155.793 101.936L155.677 102.151L155.611 102.184C154.67 102.762 153.877 103.406 153.233 104.132C152.573 104.842 152.061 105.635 151.632 106.527L151.384 107.055C150.988 107.914 150.592 108.756 150.08 109.565C149.882 109.845 149.667 110.11 149.419 110.324C148.825 110.853 148.082 111.166 147.339 111.249C146.579 111.331 145.787 111.166 145.126 110.737C144.879 110.572 144.631 110.374 144.433 110.143C144.135 109.796 143.805 109.482 143.475 109.168C143.26 108.97 143.046 108.772 142.848 108.558C142.385 108.095 142.187 107.732 142.253 107.402C142.336 107.071 142.666 106.84 143.293 106.593L143.64 106.444C145.357 105.751 146.398 105.321 147.537 103.538C148.164 102.547 148.858 101.573 149.716 100.797C150.575 100.021 151.615 99.4101 152.936 99.1459C152.953 99.1459 154.439 98.8653 154.818 98.7497L155.017 98.7001C155.297 98.6011 155.363 98.5846 155.727 98.6671C156.602 98.8653 156.734 99.4927 156.585 100.203C156.437 100.847 156.024 101.54 155.793 101.936ZM154.108 100.682C154.34 100.599 154.571 100.533 154.802 100.401C154.108 100.203 153.465 100.17 152.887 100.285C152.16 100.417 151.5 100.764 150.872 101.292C150.41 101.672 150.014 102.102 149.634 102.547C149.271 103.01 148.94 103.505 148.643 104.033C148.181 104.826 147.636 105.503 146.975 106.064C146.381 106.56 145.704 106.956 144.928 107.204C145.539 107.319 146.216 107.237 146.86 107.022C147.718 106.741 148.495 106.213 148.99 105.503C149.37 104.975 149.65 104.496 149.915 104.066C150.757 102.663 151.318 101.722 153.762 100.797L154.108 100.682ZM154.571 101.54L154.604 101.524C153.663 101.87 152.92 102.25 152.292 102.762C151.533 103.373 150.938 104.182 150.41 105.305C149.915 106.378 149.188 107.105 148.313 107.6C147.454 108.079 146.464 108.343 145.39 108.475C145.11 108.508 144.829 108.491 144.499 108.491H144.433C144.647 108.789 144.879 109.069 145.126 109.317C145.456 109.631 145.82 109.878 146.265 110.027C146.794 110.192 147.273 110.192 147.718 110.044C148.197 109.878 148.643 109.565 149.039 109.102C149.287 108.838 149.485 108.541 149.667 108.227C149.848 107.914 149.997 107.583 150.146 107.253C150.625 106.114 151.219 105.074 151.929 104.116C152.639 103.158 153.498 102.316 154.505 101.59L154.571 101.54Z" fill="white"></path>
  <path d="M155.941 110.472C156.271 108.573 158.517 103.273 160.977 101.523C161.852 100.912 163.454 100.466 163.949 101.705C164.18 102.299 163.949 102.893 163.239 103.29C162.942 103.438 162.116 103.62 162.199 104.049C162.282 104.413 162.628 104.446 162.958 104.446C164.065 104.446 165.006 103.719 165.105 102.547C165.204 101.325 164.279 100.037 163.157 99.8553C159.689 99.2939 157.312 104.148 156.189 106.625C155.792 108.045 155.594 110.01 155.941 110.472Z" fill="white"></path>
  <path d="M153.96 116.45C153.53 117.622 152.688 119.191 153.266 119.62C153.762 118.844 155.198 118.712 156.007 118.646C157.559 118.415 159.343 118.712 160.63 117.787C161.175 117.391 161.621 116.83 162.001 116.153C162.529 115.195 162.926 114.204 163.256 113.181C163.603 112.124 163.834 110.853 164.197 109.878C164.346 109.499 164.494 109.102 164.048 108.805C163.57 108.491 163.272 108.805 162.992 109.086C162.942 109.152 162.876 109.218 162.81 109.267C161.803 110.093 160.944 110.836 159.689 111.315C158.517 111.761 157.477 112.14 156.453 112.9C154.917 114.039 154.637 114.617 153.96 116.45ZM161.159 111.711C159.953 113.082 158.484 114.171 157.014 115.245C156.337 115.756 155.644 116.268 154.967 116.813C155 116.4 155.116 115.988 155.264 115.608C155.495 115.079 155.826 114.634 156.205 114.353C156.552 114.089 156.915 113.841 157.295 113.626C157.675 113.395 158.055 113.181 158.451 112.966C158.946 112.702 159.458 112.471 159.987 112.24C160.383 112.074 160.779 111.909 161.159 111.711ZM155.083 117.903C155.627 117.408 156.222 116.962 156.8 116.516C158.253 115.41 159.722 114.287 161.126 113.131C161.77 112.603 162.315 112.008 162.86 111.381C162.826 111.563 162.793 111.744 162.744 111.926C162.661 112.322 162.529 112.718 162.397 113.115C162.133 113.907 161.753 114.667 161.357 115.426C161.027 116.087 160.763 116.648 160.119 117.094C159.31 117.639 158.038 117.622 157.064 117.721L155.083 117.903Z" fill="white"></path>
  <path d="M146.843 129.113C147.735 126.472 149.105 122.377 148.379 119.669C148.131 118.728 147.24 117.456 146.15 118.051C145.638 118.331 145.456 118.893 145.721 119.603C145.836 119.883 146.315 120.494 146.001 120.759C145.754 120.973 145.473 120.775 145.242 120.593C144.449 119.933 144.201 118.86 144.829 117.968C145.489 117.043 146.893 116.647 147.801 117.192C150.624 118.843 149.518 123.995 148.858 126.439C148.296 127.693 146.992 129.031 146.843 129.113Z" fill="white"></path>
  <path d="M138.852 138.856C138.588 139.516 138.257 140.639 137.729 141.217C137.267 141.729 136.606 141.729 136.226 141.696C136.887 140.87 136.177 139.797 135.566 139.136C134.476 137.832 132.792 136.775 132.429 135.074C132.264 134.348 132.313 133.572 132.495 132.73C132.759 131.574 133.172 130.468 133.634 129.394C134.13 128.272 134.873 127.066 135.285 126.01C135.45 125.597 135.616 125.167 136.193 125.25C136.804 125.333 136.821 125.795 136.837 126.241C136.854 126.323 136.854 126.422 136.87 126.505C137.085 127.941 137.234 129.163 137.911 130.468C138.555 131.69 139.116 132.746 139.397 134.117C139.843 136.181 139.628 136.858 138.852 138.856ZM136.425 129.725C136.408 131.723 136.821 133.671 137.234 135.636C137.415 136.544 137.613 137.469 137.762 138.41C138.026 138.046 138.241 137.634 138.389 137.204C138.588 136.61 138.654 135.999 138.555 135.504C138.456 135.025 138.323 134.563 138.191 134.1C138.043 133.638 137.894 133.176 137.729 132.713C137.514 132.152 137.25 131.574 137.003 131.013C136.804 130.583 136.606 130.154 136.425 129.725ZM136.87 139.219C136.788 138.41 136.639 137.617 136.474 136.825C136.111 134.86 135.731 132.878 135.417 130.913C135.285 130.005 135.269 129.114 135.269 128.222C135.17 128.387 135.071 128.552 134.972 128.734C134.757 129.13 134.575 129.543 134.394 129.956C134.03 130.798 133.783 131.706 133.552 132.614C133.337 133.39 133.155 134.051 133.353 134.876C133.618 135.917 134.658 136.825 135.384 137.617L136.87 139.219Z" fill="white"></path>
  <path d="M145.209 101.523C146.121 101.523 146.86 100.784 146.86 99.8719C146.86 98.96 146.121 98.2207 145.209 98.2207C144.297 98.2207 143.557 98.96 143.557 99.8719C143.557 100.784 144.297 101.523 145.209 101.523Z" fill="white"></path>
  <path d="M150.542 63.8603C151.089 63.8603 151.533 63.4167 151.533 62.8696C151.533 62.3225 151.089 61.8789 150.542 61.8789C149.995 61.8789 149.551 62.3225 149.551 62.8696C149.551 63.4167 149.995 63.8603 150.542 63.8603Z" fill="white"></path>
  <path d="M161.192 76.9039C162.277 76.9039 163.157 76.0242 163.157 74.939C163.157 73.8538 162.277 72.9741 161.192 72.9741C160.107 72.9741 159.227 73.8538 159.227 74.939C159.227 76.0242 160.107 76.9039 161.192 76.9039Z" fill="white"></path>
  <path d="M150.261 114.601C150.808 114.601 151.252 114.157 151.252 113.61C151.252 113.063 150.808 112.62 150.261 112.62C149.714 112.62 149.271 113.063 149.271 113.61C149.271 114.157 149.714 114.601 150.261 114.601Z" fill="white"></path>
  <path d="M152.077 129.411C152.625 129.411 153.068 128.968 153.068 128.42C153.068 127.873 152.625 127.43 152.077 127.43C151.53 127.43 151.087 127.873 151.087 128.42C151.087 128.968 151.53 129.411 152.077 129.411Z" fill="white"></path>
  <path d="M130.018 127.116C130.565 127.116 131.009 126.673 131.009 126.125C131.009 125.578 130.565 125.135 130.018 125.135C129.471 125.135 129.027 125.578 129.027 126.125C129.027 126.673 129.471 127.116 130.018 127.116Z" fill="white"></path>
  <path d="M130.497 143.082C131.044 143.082 131.487 142.639 131.487 142.092C131.487 141.545 131.044 141.101 130.497 141.101C129.95 141.101 129.506 141.545 129.506 142.092C129.506 142.639 129.95 143.082 130.497 143.082Z" fill="white"></path>
  <path d="M108.041 138.377C108.953 138.377 109.692 137.638 109.692 136.726C109.692 135.814 108.953 135.075 108.041 135.075C107.129 135.075 106.39 135.814 106.39 136.726C106.39 137.638 107.129 138.377 108.041 138.377Z" fill="white"></path>
  <path d="M92.124 148.086C92.6711 148.086 93.1147 147.642 93.1147 147.095C93.1147 146.548 92.6711 146.104 92.124 146.104C91.5768 146.104 91.1333 146.548 91.1333 147.095C91.1333 147.642 91.5768 148.086 92.124 148.086Z" fill="white"></path>
  <path d="M72.6238 123.087C73.1709 123.087 73.6145 122.644 73.6145 122.097C73.6145 121.55 73.1709 121.106 72.6238 121.106C72.0766 121.106 71.6331 121.55 71.6331 122.097C71.6331 122.644 72.0766 123.087 72.6238 123.087Z" fill="white"></path>
  <path d="M51.2248 131.591C52.1367 131.591 52.8759 130.852 52.8759 129.94C52.8759 129.028 52.1367 128.289 51.2248 128.289C50.3129 128.289 49.5736 129.028 49.5736 129.94C49.5736 130.852 50.3129 131.591 51.2248 131.591Z" fill="white"></path>
  <path d="M56.525 88.545C57.7835 88.545 58.8036 87.5248 58.8036 86.2664C58.8036 85.008 57.7835 83.9878 56.525 83.9878C55.2666 83.9878 54.2464 85.008 54.2464 86.2664C54.2464 87.5248 55.2666 88.545 56.525 88.545Z" fill="white"></path>
  <path d="M52.1495 106.46C52.8517 106.46 53.4209 105.891 53.4209 105.189C53.4209 104.487 52.8517 103.917 52.1495 103.917C51.4473 103.917 50.8781 104.487 50.8781 105.189C50.8781 105.891 51.4473 106.46 52.1495 106.46Z" fill="white"></path>
  <path d="M39.1384 108.623C39.6582 108.623 40.0796 108.202 40.0796 107.682C40.0796 107.162 39.6582 106.741 39.1384 106.741C38.6186 106.741 38.1972 107.162 38.1972 107.682C38.1972 108.202 38.6186 108.623 39.1384 108.623Z" fill="white"></path>
  <path d="M73.2513 150.563C73.7984 150.563 74.242 150.119 74.242 149.572C74.242 149.025 73.7984 148.582 73.2513 148.582C72.7041 148.582 72.2606 149.025 72.2606 149.572C72.2606 150.119 72.7041 150.563 73.2513 150.563Z" fill="white"></path>
  <path d="M93.8908 95.2325C93.8908 93.9941 93.5275 92.2935 92.8175 90.0974C92.091 87.9014 91.0343 84.9293 89.6473 81.1812H65.1606C64.0379 84.5 63.1793 87.2244 62.5848 89.3709C62.0069 91.5174 61.7097 93.2016 61.7097 94.4234C61.7097 95.9755 62.2216 96.9332 63.2288 97.2799C64.2525 97.6267 65.7716 97.8083 67.8025 97.8083L67.9676 98.766H49.904L50.0691 97.8083C51.456 97.8083 52.6779 97.6432 53.7181 97.313C54.7584 96.9993 55.7325 96.3058 56.6407 95.2325C57.5653 94.1593 58.523 92.5081 59.5302 90.246C60.5539 88.0004 61.7262 84.9293 63.0637 81.0161L70.2132 60.3931C71.2864 57.3385 72.0955 54.9443 72.6239 53.2106C73.1522 51.4604 73.5155 50.1229 73.7136 49.1487C73.8953 48.1911 73.9943 47.3655 73.9943 46.6555C73.9943 45.4336 73.6146 44.5916 72.8715 44.1292C72.112 43.6834 70.6755 43.4523 68.529 43.4523L68.3639 42.5771H81.6062L95.8226 81.0161C97.2756 84.9293 98.4644 88.0004 99.3891 90.246C100.33 92.5081 101.205 94.1593 101.998 95.2325L102.031 95.2655V98.766H88.1943L88.3594 97.8083C90.2252 97.8083 91.6287 97.6597 92.5368 97.3625C93.4449 97.0653 93.8908 96.3553 93.8908 95.2325ZM77.115 46.9032L65.8046 79.2493H89.0033L77.115 46.9032Z" fill="white"></path>
  <path d="M147.834 59.815C146.018 59.815 144.598 59.9801 143.541 60.3433C142.501 60.6901 141.725 61.4331 141.213 62.5889C140.718 63.7282 140.387 65.4619 140.255 67.757C140.123 70.0686 140.057 73.1728 140.057 77.0695V96.9825C140.057 100.896 140.123 104 140.255 106.295C140.387 108.59 140.718 110.307 141.213 111.43C141.725 112.553 142.501 113.296 143.541 113.643C144.598 113.989 146.018 114.155 147.834 114.155L147.999 115.129H126.32L126.485 114.155C128.367 114.155 129.82 113.989 130.86 113.643C131.9 113.296 132.693 112.553 133.238 111.43C133.766 110.307 134.096 108.59 134.229 106.295C134.361 104 134.443 100.896 134.443 96.9825V88.1488H105.168V96.9825C105.168 100.896 105.251 104 105.416 106.295C105.564 108.59 105.911 110.307 106.423 111.43C106.918 112.553 107.694 113.296 108.751 113.643C109.791 113.989 111.211 114.155 113.044 114.155L113.193 115.129H91.5297L91.6783 114.155C93.511 114.155 94.9476 113.989 96.0208 113.643C97.0941 113.296 97.8866 112.553 98.382 111.43C98.8938 110.307 99.2241 108.59 99.3562 106.295C99.4882 104 99.5543 100.896 99.5543 96.9825V77.0695C99.5543 73.1728 99.4882 70.0686 99.3562 67.757C99.2241 65.4619 98.8938 63.7282 98.382 62.5889C97.8866 61.4331 97.0941 60.6901 96.0208 60.3433C94.9476 59.9801 93.511 59.815 91.6783 59.815L91.5297 58.9233H113.193L113.044 59.815C111.211 59.815 109.791 59.9801 108.751 60.3433C107.694 60.6901 106.918 61.4331 106.423 62.5889C105.911 63.7282 105.564 65.4619 105.416 67.757C105.251 70.0686 105.168 73.1728 105.168 77.0695V86.0683H134.443V77.0695C134.443 73.1728 134.361 70.0686 134.229 67.757C134.096 65.4619 133.766 63.7282 133.238 62.5889C132.693 61.4331 131.9 60.6901 130.86 60.3433C129.82 59.9801 128.367 59.815 126.485 59.815L126.32 58.9233H147.999L147.834 59.815Z" fill="white"></path>
</svg>
